# xmcd
#
# Track frame offsets: 
#        150
#        13366
#        35438
#        55624
#        70882
#        88429
#        100299
#        112288
#        125933
#        139492
#        151648
#        169006
#
# Disc length: 2478 seconds
#
# Revision: 0
# Processed by: cddbd v1.5.2PL0 Copyright (c) Steve Scherf et al.
# Submitted via: ExactAudioCopy v0.99pb4
#
DISCID=b109ac0c
DTITLE=Dan Roberts - Beyond The Brand
DYEAR=2007
DGENRE=Country
TTITLE0=Can´t Change Horses
TTITLE1=Rodeo Wind
TTITLE2=Ride Safe
TTITLE3=Cowboy T.V
TTITLE4=Woman In Texas
TTITLE5=Family Practic
TTITLE6=No Plan B
TTITLE7=What Am I Doing About Today
TTITLE8=Buckle Up
TTITLE9=Roll Out The Barrel
TTITLE10=Ropin His Dreams
TTITLE11=So Long Tall Texan
EXTD=
EXTT0=
EXTT1=
EXTT2=
EXTT3=
EXTT4=
EXTT5=
EXTT6=
EXTT7=
EXTT8=
EXTT9=
EXTT10=
EXTT11=
PLAYORDER=
